<?xml version="1.0" encoding="iso-8859-1"?>
<!-- Generator: Adobe Illustrator 19.1.0, SVG Export Plug-In . SVG Version: 6.00 Build 0)  -->
<svg version="1.1" id="Capa_1" xmlns="http://www.w3.org/2000/svg" xmlns:xlink="http://www.w3.org/1999/xlink" x="0px" y="0px"
	 viewBox="0 0 320.672 320.672" style="enable-background:new 0 0 320.672 320.672;" xml:space="preserve">
<g>
	<g id="Pencil_2_">
		<g>
			<path d="M258.723,18.231l43.74,43.718L320.672,0L258.723,18.231z M0,224.461l96.211,96.211l184.394-184.394l0,0L184.372,40.09
				L0,224.461z M88.184,280.582L40.09,232.488l16.031-16.031l48.094,48.094L88.184,280.582z M240.493,128.273L120.246,248.52
				l-16.031-16.031l120.246-120.246L240.493,128.273z M208.43,96.211L88.184,216.457l-16.031-16.031L192.399,80.179L208.43,96.211z
				 M209.156,32.788l78.705,78.705l7.279-24.784l-61.223-61.223L209.156,32.788z"/>
		</g>
	</g>
</g>
<g>
</g>
<g>
</g>
<g>
</g>
<g>
</g>
<g>
</g>
<g>
</g>
<g>
</g>
<g>
</g>
<g>
</g>
<g>
</g>
<g>
</g>
<g>
</g>
<g>
</g>
<g>
</g>
<g>
</g>
</svg>
