<?xml version="1.0" encoding="iso-8859-1"?>
<!-- Generator: Adobe Illustrator 19.1.0, SVG Export Plug-In . SVG Version: 6.00 Build 0)  -->
<svg version="1.1" id="Capa_1" xmlns="http://www.w3.org/2000/svg" xmlns:xlink="http://www.w3.org/1999/xlink" x="0px" y="0px"
	 viewBox="0 0 302.266 302.266" style="enable-background:new 0 0 302.266 302.266;" xml:space="preserve">
<g>
	<g id="Wrench_2_">
		<g>
			<path d="M297.662,52.698l-29.5,29.5c-0.703,10.567-4.921,20.952-12.993,29.024c-17.709,17.709-46.416,17.709-64.125,0
				s-17.709-46.416,0-64.125c8.072-8.072,18.458-12.29,29.024-12.993l29.5-29.5c-27.936-9.886-60.225-3.9-82.583,18.435
				c-22.766,22.766-28.661,55.872-17.981,84.17c-2.154,1.066-4.286,2.222-6.077,4.013L6.649,247.5
				c-8.866,8.866-8.866,23.219,0,32.063l16.031,16.054c8.866,8.866,23.219,8.866,32.063,0l136.278-136.278
				c1.791-1.791,2.97-3.923,4.036-6.077c28.299,10.68,61.404,4.784,84.17-17.981C301.562,112.946,307.549,80.634,297.662,52.698z
				 M166.985,151.312L46.739,271.559c-4.422,4.422-11.61,4.422-16.031,0c-4.422-4.422-4.422-11.61,0-16.031l120.246-120.246
				c4.422-4.422,11.61-4.422,16.031,0C171.407,139.703,171.407,146.891,166.985,151.312z M215.079,71.156
				c-4.422,4.422-4.422,11.61,0,16.031s11.61,4.422,16.031,0s4.422-11.61,0-16.031C226.689,66.711,219.524,66.711,215.079,71.156z"
				/>
		</g>
	</g>
</g>
<g>
</g>
<g>
</g>
<g>
</g>
<g>
</g>
<g>
</g>
<g>
</g>
<g>
</g>
<g>
</g>
<g>
</g>
<g>
</g>
<g>
</g>
<g>
</g>
<g>
</g>
<g>
</g>
<g>
</g>
</svg>
