<?xml version="1.0" encoding="iso-8859-1"?>
<!-- Generator: Adobe Illustrator 19.1.0, SVG Export Plug-In . SVG Version: 6.00 Build 0)  -->
<svg version="1.1" id="Capa_1" xmlns="http://www.w3.org/2000/svg" xmlns:xlink="http://www.w3.org/1999/xlink" x="0px" y="0px"
	 viewBox="0 0 317.452 317.452" style="enable-background:new 0 0 317.452 317.452;" xml:space="preserve">
<g>
	<g id="Documents_2_">
		<g>
			<path d="M204.076,0H34.013v317.452h249.427V90.701l0,0L204.076,0z M204.076,48.593l36.847,42.108h-36.847V48.593z
				 M260.764,294.777H56.688V22.675h124.713v90.701h79.363V294.777z M90.701,204.076h22.675v-22.675H90.701V204.076z
				 M90.701,158.726h22.675v-22.675H90.701V158.726z M136.051,249.427h56.688v-22.675h-56.688V249.427z M136.051,158.726h90.701
				v-22.675h-90.701V158.726z M136.051,204.076h68.025v-22.675h-68.025V204.076z M90.701,249.427h22.675v-22.675H90.701V249.427z"/>
		</g>
	</g>
</g>
<g>
</g>
<g>
</g>
<g>
</g>
<g>
</g>
<g>
</g>
<g>
</g>
<g>
</g>
<g>
</g>
<g>
</g>
<g>
</g>
<g>
</g>
<g>
</g>
<g>
</g>
<g>
</g>
<g>
</g>
</svg>
