<?xml version="1.0" encoding="iso-8859-1"?>
<!-- Generator: Adobe Illustrator 16.0.0, SVG Export Plug-In . SVG Version: 6.00 Build 0)  -->
<!DOCTYPE svg PUBLIC "-//W3C//DTD SVG 1.1//EN" "http://www.w3.org/Graphics/SVG/1.1/DTD/svg11.dtd">
<svg version="1.1" id="Capa_1" xmlns="http://www.w3.org/2000/svg" xmlns:xlink="http://www.w3.org/1999/xlink" x="0px" y="0px"
	 width="349.116px" height="349.116px" viewBox="0 0 349.116 349.116" style="enable-background:new 0 0 349.116 349.116;"
	 xml:space="preserve">
<g>
	<g>
		<rect x="0.877" y="227.79" width="347.362" height="13.098"/>
		<polygon points="57.613,247.872 57.613,287.432 38.408,287.432 38.408,349.116 127.428,349.116 127.428,287.432 82.049,287.432 
			82.049,247.872 		"/>
		<polygon points="237.696,246.708 237.696,286.276 192.302,286.276 192.302,347.947 281.331,347.947 281.331,286.276 
			262.114,286.276 262.114,246.708 		"/>
		<path d="M233.903,215.575h15.996h11.058V57.604h-27.061H82.049H54.995v57.6v79.132v21.239h27.054h12.799v-10.62h129.756v10.62
			H233.903z M137.755,194.335H82.042v-79.132h29.231v31.426h26.476v47.706H137.755z M181.975,194.335V146.63h26.476v-31.426h25.453
			v79.132H181.975z"/>
		<rect x="33.75" y="57.604" width="17.452" height="57.6"/>
		<rect x="264.294" y="57.308" width="17.458" height="57.604"/>
		<rect x="123.936" width="70.984" height="52.952"/>
	</g>
</g>
<g>
</g>
<g>
</g>
<g>
</g>
<g>
</g>
<g>
</g>
<g>
</g>
<g>
</g>
<g>
</g>
<g>
</g>
<g>
</g>
<g>
</g>
<g>
</g>
<g>
</g>
<g>
</g>
<g>
</g>
</svg>
